<svg width="39" height="60" viewBox="0 0 39 60" fill="none" xmlns="http://www.w3.org/2000/svg">
<path d="M1.48 43C1.032 43 0.888 42.76 1.048 42.28L8.968 12.04C9.064 11.72 9.288 11.56 9.64 11.56H17.704C18.056 11.56 18.296 11.72 18.424 12.04L26.344 42.28C26.44 42.76 26.28 43 25.864 43H18.904C18.552 43 18.328 42.84 18.232 42.52L14.824 24.856C14.6 23.736 14.392 22.632 14.2 21.544C14.04 20.424 13.88 19.336 13.72 18.28H13.576C13.416 19.336 13.24 20.424 13.048 21.544C12.856 22.664 12.664 23.784 12.472 24.904L8.968 42.472C8.936 42.824 8.712 43 8.296 43H1.48ZM8.92 37.192L9.976 31.288H17.128L18.28 37.192H8.92ZM29.0474 43C28.6634 43 28.4714 42.792 28.4714 42.376V12.184C28.4714 11.768 28.6634 11.56 29.0474 11.56H35.3354C35.7514 11.56 35.9594 11.768 35.9594 12.184V42.376C35.9594 42.792 35.7514 43 35.3354 43H29.0474Z" fill="white"/>
<path d="M1.52 55C1.41333 55 1.36 54.9467 1.36 54.84V44.68C1.36 44.5733 1.41333 44.52 1.52 44.52H3.376C3.472 44.52 3.536 44.5573 3.568 44.632L6.576 50.744C6.77867 51.1387 6.95467 51.496 7.104 51.816C7.264 52.136 7.40267 52.4347 7.52 52.712C7.648 52.9893 7.76533 53.2613 7.872 53.528H7.904C7.904 53.2293 7.904 52.92 7.904 52.6C7.904 52.2693 7.89867 51.9387 7.888 51.608C7.888 51.2773 7.888 50.968 7.888 50.68V44.68C7.888 44.5733 7.94133 44.52 8.048 44.52H9.072C9.17867 44.52 9.232 44.5733 9.232 44.68V54.84C9.232 54.9467 9.17867 55 9.072 55H7.264C7.168 55 7.104 54.9627 7.072 54.888L4.112 48.936C3.94133 48.584 3.776 48.248 3.616 47.928C3.456 47.5973 3.30133 47.272 3.152 46.952C3.00267 46.632 2.85867 46.312 2.72 45.992H2.688C2.688 46.3547 2.688 46.7013 2.688 47.032C2.69867 47.3627 2.704 47.6933 2.704 48.024C2.704 48.344 2.704 48.6907 2.704 49.064V54.84C2.704 54.9467 2.65067 55 2.544 55H1.52ZM11.1538 55C11.0471 55 10.9937 54.9467 10.9937 54.84V44.68C10.9937 44.5733 11.0471 44.52 11.1538 44.52H16.8498C16.9564 44.52 17.0098 44.5733 17.0098 44.68V45.592C17.0098 45.6987 16.9564 45.752 16.8498 45.752H12.3537V49.08H16.4658C16.5724 49.08 16.6258 49.1333 16.6258 49.24V50.104C16.6258 50.2107 16.5724 50.264 16.4658 50.264H12.3537V53.768H16.8498C16.9564 53.768 17.0098 53.8213 17.0098 53.928V54.84C17.0098 54.9467 16.9564 55 16.8498 55H11.1538ZM20.645 55C20.549 55 20.4903 54.9573 20.469 54.872L17.541 44.696C17.509 44.5787 17.557 44.52 17.685 44.52H18.741C18.837 44.52 18.8957 44.5627 18.917 44.648L20.773 51.256C20.8477 51.5013 20.917 51.752 20.981 52.008C21.045 52.2533 21.109 52.504 21.173 52.76C21.2477 53.0053 21.317 53.256 21.381 53.512H21.397C21.5143 53.1387 21.6263 52.7707 21.733 52.408C21.8503 52.0453 21.9623 51.6827 22.069 51.32L23.413 46.856L22.837 44.856C22.8263 44.8027 22.8317 44.76 22.853 44.728C22.885 44.696 22.9277 44.68 22.981 44.68H24.069C24.165 44.68 24.2237 44.728 24.245 44.824L26.053 51.464C26.149 51.8053 26.2397 52.1467 26.325 52.488C26.421 52.8293 26.517 53.1707 26.613 53.512H26.629C26.693 53.2667 26.757 53.0213 26.821 52.776C26.885 52.5307 26.949 52.2853 27.013 52.04C27.077 51.7947 27.141 51.5493 27.205 51.304L28.997 44.648C29.0183 44.5627 29.077 44.52 29.173 44.52H30.277C30.405 44.52 30.453 44.5787 30.421 44.696L27.605 54.872C27.5837 54.9573 27.525 55 27.429 55H25.909C25.813 55 25.7543 54.9573 25.733 54.872L24.645 51.112C24.5383 50.76 24.437 50.408 24.341 50.056C24.245 49.704 24.149 49.352 24.053 49H24.037C23.9303 49.3413 23.8237 49.688 23.717 50.04C23.621 50.3813 23.5197 50.7227 23.413 51.064L22.277 54.872C22.245 54.9573 22.1863 55 22.101 55H20.645ZM34.193 55.192C32.913 55.192 31.9743 54.92 31.377 54.376C30.7797 53.8213 30.513 53.1013 30.577 52.216C30.5877 52.024 30.6517 51.928 30.769 51.928H31.777C31.905 51.928 31.969 52.0133 31.969 52.184C31.969 52.8347 32.161 53.304 32.545 53.592C32.929 53.8693 33.5157 54.008 34.305 54.008C35.0623 54.008 35.633 53.8747 36.017 53.608C36.4117 53.3307 36.609 52.9147 36.609 52.36C36.609 52.0827 36.561 51.848 36.465 51.656C36.3797 51.4533 36.2303 51.2773 36.017 51.128C35.8037 50.9787 35.5157 50.8293 35.153 50.68L32.801 49.704C32.3103 49.5013 31.9103 49.2773 31.601 49.032C31.3023 48.776 31.0837 48.488 30.945 48.168C30.817 47.8373 30.753 47.464 30.753 47.048C30.7637 46.1627 31.057 45.4907 31.633 45.032C32.2197 44.5733 33.0677 44.344 34.177 44.344C34.9343 44.344 35.5903 44.456 36.145 44.68C36.6997 44.904 37.121 45.2293 37.409 45.656C37.697 46.0827 37.8143 46.6053 37.761 47.224C37.7397 47.4267 37.681 47.528 37.585 47.528H36.561C36.5077 47.528 36.465 47.5067 36.433 47.464C36.4117 47.4213 36.4063 47.3413 36.417 47.224C36.4597 46.68 36.273 46.264 35.857 45.976C35.4517 45.6773 34.8757 45.528 34.129 45.528C33.4677 45.528 32.9663 45.6453 32.625 45.88C32.2943 46.1147 32.1237 46.4773 32.113 46.968C32.113 47.224 32.1557 47.448 32.241 47.64C32.337 47.832 32.4917 48.008 32.705 48.168C32.929 48.328 33.233 48.488 33.617 48.648L35.937 49.624C36.4277 49.8267 36.8223 50.0507 37.121 50.296C37.4197 50.5413 37.633 50.8293 37.761 51.16C37.8997 51.48 37.969 51.8693 37.969 52.328C37.969 53.224 37.665 53.928 37.057 54.44C36.449 54.9413 35.4943 55.192 34.193 55.192Z" fill="#A73BFF"/>
</svg>
