<svg width="152" height="34" viewBox="0 0 152 34" fill="none" xmlns="http://www.w3.org/2000/svg">
<path d="M1.48 33C1.032 33 0.888 32.76 1.048 32.28L8.968 2.04C9.064 1.72 9.288 1.56 9.64 1.56H17.704C18.056 1.56 18.296 1.72 18.424 2.04L26.344 32.28C26.44 32.76 26.28 33 25.864 33H18.904C18.552 33 18.328 32.84 18.232 32.52L14.824 14.856C14.6 13.736 14.392 12.632 14.2 11.544C14.04 10.424 13.88 9.336 13.72 8.28H13.576C13.416 9.336 13.24 10.424 13.048 11.544C12.856 12.664 12.664 13.784 12.472 14.904L8.968 32.472C8.936 32.824 8.712 33 8.296 33H1.48ZM8.92 27.192L9.976 21.288H17.128L18.28 27.192H8.92ZM29.0474 33C28.6634 33 28.4714 32.792 28.4714 32.376V2.184C28.4714 1.768 28.6634 1.56 29.0474 1.56H35.3354C35.7514 1.56 35.9594 1.768 35.9594 2.184V32.376C35.9594 32.792 35.7514 33 35.3354 33H29.0474Z" fill="white"/>
<path d="M42.9753 33C42.7833 33 42.6873 32.904 42.6873 32.712V1.848C42.6873 1.656 42.7833 1.56 42.9753 1.56H45.7113C45.8713 1.56 45.9833 1.624 46.0473 1.752L56.9433 20.184C57.7113 21.432 58.4473 22.648 59.1513 23.832C59.8553 24.984 60.5273 26.12 61.1673 27.24C61.8393 28.36 62.4953 29.48 63.1353 30.6H63.2313C63.2313 29.416 63.2313 28.248 63.2313 27.096C63.2313 25.912 63.2153 24.728 63.1833 23.544C63.1833 22.328 63.1833 21.16 63.1833 20.04V1.848C63.1833 1.656 63.2793 1.56 63.4713 1.56H65.0073C65.1993 1.56 65.2953 1.656 65.2953 1.848V32.712C65.2953 32.904 65.1993 33 65.0073 33H62.3193C62.1593 33 62.0473 32.936 61.9833 32.808L51.4233 15C50.6873 13.752 49.9353 12.52 49.1673 11.304C48.4313 10.056 47.6953 8.824 46.9593 7.608C46.2553 6.392 45.5353 5.176 44.7993 3.96H44.7513C44.7513 5.24 44.7513 6.504 44.7513 7.752C44.7513 8.968 44.7513 10.184 44.7513 11.4C44.7513 12.616 44.7513 13.864 44.7513 15.144V32.712C44.7513 32.904 44.6713 33 44.5113 33H42.9753ZM72.0171 33C71.8251 33 71.7291 32.904 71.7291 32.712V1.848C71.7291 1.656 71.8251 1.56 72.0171 1.56H88.8171C89.0091 1.56 89.1051 1.656 89.1051 1.848V3.24C89.1051 3.432 89.0091 3.528 88.8171 3.528H73.8411V15.96H87.7611C87.9211 15.96 88.0011 16.056 88.0011 16.248V17.592C88.0011 17.784 87.9211 17.88 87.7611 17.88H73.8411V31.032H88.8171C89.0091 31.032 89.1051 31.128 89.1051 31.32V32.712C89.1051 32.904 89.0091 33 88.8171 33H72.0171ZM101.632 33C101.44 33 101.328 32.92 101.296 32.76L91.7916 1.848C91.7276 1.656 91.8236 1.56 92.0796 1.56H93.6156C93.8076 1.56 93.9356 1.64 93.9996 1.8L100.672 23.688C100.928 24.456 101.168 25.24 101.392 26.04C101.616 26.808 101.84 27.592 102.064 28.392C102.32 29.16 102.56 29.944 102.784 30.744H102.832C103.216 29.592 103.6 28.424 103.984 27.24C104.368 26.056 104.736 24.888 105.088 23.736L109.984 8.664L108.112 2.328C108.08 2.232 108.096 2.168 108.16 2.136C108.224 2.072 108.304 2.04 108.4 2.04H109.984C110.176 2.04 110.288 2.12 110.32 2.28L116.56 23.832C116.88 24.984 117.2 26.136 117.52 27.288C117.872 28.44 118.208 29.592 118.528 30.744H118.576C118.832 29.944 119.072 29.144 119.296 28.344C119.52 27.544 119.744 26.744 119.968 25.944C120.224 25.144 120.48 24.344 120.736 23.544L127.264 1.8C127.296 1.64 127.408 1.56 127.6 1.56H129.232C129.456 1.56 129.552 1.656 129.52 1.848L120.16 32.76C120.128 32.92 120.016 33 119.824 33H117.424C117.232 33 117.12 32.92 117.088 32.76L112.912 18.696C112.592 17.576 112.272 16.456 111.952 15.336C111.632 14.216 111.312 13.096 110.992 11.976H110.944C110.56 13.096 110.192 14.216 109.84 15.336C109.488 16.456 109.136 17.592 108.784 18.744L104.32 32.76C104.256 32.92 104.128 33 103.936 33H101.632ZM140.84 33.576C137.16 33.576 134.488 32.84 132.824 31.368C131.192 29.864 130.424 27.688 130.52 24.84C130.52 24.552 130.616 24.408 130.808 24.408H132.344C132.536 24.408 132.632 24.536 132.632 24.792C132.632 27.192 133.288 28.936 134.6 30.024C135.912 31.112 138.04 31.656 140.984 31.656C143.96 31.656 146.104 31.192 147.416 30.264C148.76 29.336 149.432 27.832 149.432 25.752C149.432 24.472 149.224 23.448 148.808 22.68C148.392 21.88 147.752 21.192 146.888 20.616C146.024 20.04 144.872 19.448 143.432 18.84L137.336 16.248C135.864 15.576 134.648 14.888 133.688 14.184C132.76 13.48 132.088 12.664 131.672 11.736C131.288 10.808 131.096 9.656 131.096 8.28C131.096 5.848 131.96 4.024 133.688 2.808C135.416 1.592 137.816 0.983997 140.888 0.983997C143.16 0.983997 145.048 1.32 146.552 1.992C148.088 2.632 149.224 3.576 149.96 4.824C150.728 6.072 151.08 7.624 151.016 9.48C150.984 9.8 150.872 9.96 150.68 9.96H149.144C149.08 9.96 149.016 9.928 148.952 9.864C148.92 9.768 148.904 9.64 148.904 9.48C148.968 7.336 148.328 5.704 146.984 4.584C145.672 3.464 143.64 2.904 140.888 2.904C138.488 2.904 136.6 3.336 135.224 4.2C133.88 5.032 133.208 6.36 133.208 8.184C133.208 9.304 133.368 10.232 133.688 10.968C134.04 11.672 134.616 12.312 135.416 12.888C136.216 13.432 137.272 13.976 138.584 14.52L144.68 17.208C146.344 17.912 147.672 18.632 148.664 19.368C149.688 20.104 150.424 20.968 150.872 21.96C151.32 22.92 151.544 24.168 151.544 25.704C151.544 28.328 150.712 30.296 149.048 31.608C147.384 32.92 144.648 33.576 140.84 33.576Z" fill="#A73BFF"/>
</svg>
